<?xml version="1.0" encoding="UTF-8"?>
<svg width="512pt" height="512pt" version="1.0" viewBox="0 0 512 512" xmlns="http://www.w3.org/2000/svg">
 <g transform="matrix(.1 0 0 -.1 0 512)">
  <path d="m2495 4786c-41-18-83-69-90-109-4-18-5-118-3-224 3-210 5-218 72-267 39-29 133-29 172 0 68 51 69 53 69 294 0 205-1 220-21 246-11 15-32 37-46 47-33 25-113 32-153 13z"/>
  <path d="m1025 4176c-41-18-83-69-91-111-14-79-2-101 144-248 76-76 149-145 164-153 61-32 159-8 200 48 23 33 34 102 23 145-8 35-268 300-312 319-40 17-89 17-128 0z"/>
  <path d="m415 2706c-97-43-124-171-54-251 45-51 78-57 301-53 215 3 223 5 272 72 29 39 29 133 0 172-50 67-55 69-282 71-157 2-214 0-237-11z"/>
  <path d="m1255 1461c-23-11-98-77-177-157-146-149-158-170-143-251 9-49 69-109 118-118 81-15 102-3 251 143 91 90 145 152 158 181 58 128-80 263-207 202z"/>
  <path d="m2495 946c-41-18-83-69-90-109-4-18-5-118-3-224 3-210 5-218 72-267 39-29 133-29 172 0 68 51 69 53 69 294 0 205-1 220-21 246-11 15-32 37-46 47-33 25-113 32-153 13z"/>
  <path d="m4095 4176c41-18 83-69 91-111 14-79 2-101-144-248-76-76-149-145-164-153-61-32-159-8-200 48-23 33-34 102-23 145 8 35 268 300 312 319 40 17 89 17 128 0z"/>
  <path d="m4705 2706c97-43 124-171 54-251-45-51-78-57-301-53-215 3-223 5-272 72-29 39-29 133 0 172 50 67 55 69 282 71 157 2 214 0 237-11z"/>
  <path d="m3865 1461c23-11 98-77 177-157 146-149 158-170 143-251-9-49-69-109-118-118-81-15-102-3-251 143-91 90-145 152-158 181-58 128 80 263 207 202z"/>
 </g>
 <path transform="matrix(.1 0 0 -.1 0 512)" d="m2560 3694.9a1135.9 1134.9 0 0 1-161.65-11.559 1135.9 1134.9 0 0 1-158.37-34.418 1135.9 1134.9 0 0 1-151.84-56.586 1135.9 1134.9 0 0 1-142.25-77.606 1135.9 1134.9 0 0 1-129.73-97.037 1135.9 1134.9 0 0 1-114.6-114.5 1135.9 1134.9 0 0 1-97.115-129.63 1135.9 1134.9 0 0 1-77.672-142.13 1135.9 1134.9 0 0 1-56.638-151.72 1135.9 1134.9 0 0 1-34.444-158.22 1135.9 1134.9 0 0 1-11.572-161.52 1135.9 1134.9 0 0 1 11.572-161.52 1135.9 1134.9 0 0 1 34.444-158.22 1135.9 1134.9 0 0 1 56.638-151.72 1135.9 1134.9 0 0 1 77.672-142.13 1135.9 1134.9 0 0 1 97.115-129.63 1135.9 1134.9 0 0 1 114.6-114.5 1135.9 1134.9 0 0 1 129.73-97.037 1135.9 1134.9 0 0 1 142.25-77.606 1135.9 1134.9 0 0 1 151.84-56.585 1135.9 1134.9 0 0 1 158.37-34.418 1135.9 1134.9 0 0 1 161.65-11.56 1135.9 1134.9 0 0 1 161.65 11.56 1135.9 1134.9 0 0 1 158.37 34.418 1135.9 1134.9 0 0 1 151.84 56.585 1135.9 1134.9 0 0 1 142.25 77.606 1135.9 1134.9 0 0 1 129.73 97.037 1135.9 1134.9 0 0 1 114.6 114.5 1135.9 1134.9 0 0 1 97.115 129.63 1135.9 1134.9 0 0 1 77.671 142.13 1135.9 1134.9 0 0 1 56.638 151.72 1135.9 1134.9 0 0 1 34.444 158.22 1135.9 1134.9 0 0 1 11.56 161.52 1135.9 1134.9 0 0 1-1.3683 55.686 1135.9 1134.9 0 0 1-4.0922 55.556 1135.9 1134.9 0 0 1-6.8287 55.282 1135.9 1134.9 0 0 1-9.5264 54.891 1135.9 1134.9 0 0 1-12.224 54.344 1135.9 1134.9 0 0 1-14.87 53.692 1135.9 1134.9 0 0 1-17.489 52.897 1135.9 1134.9 0 0 1-20.056 51.972 1135.9 1134.9 0 0 1-22.598 50.917 1135.9 1134.9 0 0 1-25.061 49.756 1135.9 1134.9 0 0 1-27.485 48.48 1135.9 1134.9 0 0 1-29.831 47.059 1135.9 1134.9 0 0 1-32.098 45.547 1135.9 1134.9 0 0 1-34.3 43.905 1135.9 1134.9 0 0 1-36.412 42.185 1135.9 1134.9 0 0 1-38.445 40.348 1135.9 1134.9 0 0 1-40.374 38.406 1135.9 1134.9 0 0 1-42.224 36.386 1135.9 1134.9 0 0 1-43.944 34.274 1135.9 1134.9 0 0 1-45.586 32.072 1135.9 1134.9 0 0 1-47.098 29.804 1135.9 1134.9 0 0 1-48.506 27.459 1135.9 1134.9 0 0 1-49.809 25.048 1135.9 1134.9 0 0 1-50.968 22.572 1135.9 1134.9 0 0 1-52.011 20.043 1135.9 1134.9 0 0 1-52.936 17.476 1135.9 1134.9 0 0 1-53.731 14.857 1135.9 1134.9 0 0 1-54.396 12.198 1135.9 1134.9 0 0 1-54.93 9.5264 1135.9 1134.9 0 0 1-55.334 6.8158 1135.9 1134.9 0 0 1-55.595 4.1052 1135.9 1134.9 0 0 1-55.738 1.3682z" fill-opacity="0" stroke="#000" stroke-linecap="round" stroke-width="316.7"/>
</svg>
