<?xml version="1.0" encoding="UTF-8"?>
<!-- Created with Inkscape (http://www.inkscape.org/) -->
<svg width="1919.9" height="1241.9" version="1.1" xmlns="http://www.w3.org/2000/svg" xmlns:cc="http://creativecommons.org/ns#" xmlns:dc="http://purl.org/dc/elements/1.1/" xmlns:rdf="http://www.w3.org/1999/02/22-rdf-syntax-ns#" xmlns:xlink="http://www.w3.org/1999/xlink">
 <defs>
  <linearGradient id="linearGradient3942" x1="1354.5" x2="1479.7" y1="92.056" y2="585.24" gradientTransform="matrix(.88971 0 0 .88971 -232.98 148.13)" gradientUnits="userSpaceOnUse">
   <stop stop-color="#b3e1d8" stop-opacity=".72348" offset="0"/>
   <stop stop-color="#6d8090" stop-opacity="0" offset="1"/>
  </linearGradient>
  <linearGradient id="linearGradient3982" x1="1354.5" x2="1479.7" y1="92.056" y2="585.24" gradientTransform="matrix(.6345 0 0 .6345 -513.17 36.445)" gradientUnits="userSpaceOnUse">
   <stop stop-color="#b3e1d8" stop-opacity=".72348" offset="0"/>
   <stop stop-color="#6d8090" stop-opacity="0" offset="1"/>
  </linearGradient>
  <linearGradient id="linearGradient3985" x1="1354.5" x2="1479.7" y1="92.056" y2="585.24" gradientTransform="matrix(.2986 0 0 .2986 1215.9 32.969)" gradientUnits="userSpaceOnUse">
   <stop stop-color="#b3e1d8" stop-opacity=".72348" offset="0"/>
   <stop stop-color="#6d8090" stop-opacity="0" offset="1"/>
  </linearGradient>
  <linearGradient id="linearGradient3081" x1="1215.9" x2="1608.5" y1="-407.9" y2="971.64" gradientTransform="matrix(1 0 0 1.1577 0 -274.91)" gradientUnits="userSpaceOnUse">
   <stop stop-color="#bea7bf" stop-opacity=".93564" offset="0"/>
   <stop stop-color="#5d5c7f" offset=".44583"/>
   <stop stop-color="#463c6a" offset="1"/>
  </linearGradient>
  <radialGradient id="radialGradient28" cx="1085" cy="120.47" r="135" gradientUnits="userSpaceOnUse">
   <stop stop-color="#a8b5b8" offset=".62712"/>
   <stop stop-color="#a8b5b8" stop-opacity="0" offset="1"/>
  </radialGradient>
 </defs>
 <metadata>
  <rdf:RDF>
   <cc:Work rdf:about="">
    <dc:format>image/svg+xml</dc:format>
    <dc:type rdf:resource="http://purl.org/dc/dcmitype/StillImage"/>
   </cc:Work>
  </rdf:RDF>
 </metadata>
 <g transform="translate(1.7e-6 312.25)">
  <rect x="-1.7e-6" y="-312.25" width="1919.9" height="1205.5" color="#000000" fill="url(#linearGradient3081)"/>
  <path d="m1727.4 70.359c-5.817 0.061206-11.721 1.0961-17.496 3.2099-21.404 7.8351-34.631 28.142-34.478 49.697-11.723-4.8356-25.224-5.468-38.071-0.76514-0.6084 0.22273-1.2058 0.4572-1.8008 0.69982-12.219-22.519-39.412-33.274-64.189-24.205-18.621 6.8161-31.063 23.061-33.881 41.365-12.179-5.6319-26.5-6.6284-40.096-1.6516-27.239 9.971-41.23 40.141-31.259 67.38 9.9709 27.239 40.131 41.24 67.371 31.269 6.2904-2.3026 11.874-5.6812 16.619-9.8536 5.2076 3.1879 11.335 5.0201 17.888 5.0201 9.4579 0 18.017-3.8226 24.224-10.012 5.8393 10.596 17.121 17.766 30.074 17.766 12.256 0 23.008-6.4212 29.076-16.087 7.2748 0.56345 14.787-0.3793 22.087-3.0513 5.1842-1.8977 9.8833-4.5345 14.034-7.7355 6.2803 6.9734 15.379 11.365 25.502 11.365 17.908 0 32.599-13.721 34.161-31.222 13.997 12.597 34.321 17.234 53.234 10.311 27.239-9.971 41.24-40.141 31.269-67.38-8.5196-23.274-31.787-36.876-55.371-34.124-8.4773-19.996-28.12-32.215-48.895-31.996z" color="#000000" fill="url(#linearGradient3985)" opacity=".4"/>
  <path d="m573.71 115.9c-12.361 0.13006-24.907 2.3292-37.178 6.8209-45.483 16.649-73.59 59.8-73.265 105.6-5.9859-20.856-32.875-52.22-62.541-40.896-20.218 7.5703-20.92 40.242-22.184 40.757-25.965-47.852-83.749-70.706-136.4-51.434-39.568 14.484-66.007 49.003-71.996 87.898-25.879-11.968-56.311-14.085-85.202-3.5096-57.882 21.188-87.612 85.297-66.424 143.18 21.188 57.882 85.277 87.632 143.16 66.444 13.367-4.893 25.232-12.072 35.314-20.939 11.066 6.7741 24.086 10.668 38.011 10.668 20.097 0 38.286-8.1227 51.474-21.276 12.408 22.515 36.381 37.753 63.906 37.753 26.043 0 48.892-13.645 61.785-34.184 15.458 1.1973 31.422-0.80599 46.933-6.4838 11.016-4.0326 21.002-9.6355 29.821-16.438 13.345 14.818 32.68 24.151 54.19 24.151 38.053 0 69.272-29.156 72.591-66.345 29.743 26.769 72.93 36.622 113.12 21.91 57.882-21.188 87.632-85.297 66.444-143.18-18.104-49.457-67.546-78.359-117.66-72.512-18.014-42.49-59.754-68.455-103.9-67.991z" color="#000000" fill="url(#linearGradient3982)" opacity=".4"/>
  <path d="m1291.1 259.54c-17.332 0.1823-34.926 3.266-52.132 9.5644-63.777 23.346-103.19 83.853-102.73 148.08-34.931-14.409-75.158-16.293-113.44-2.2799-1.8127 0.6637-3.5928 1.3623-5.366 2.0852-36.408-67.099-117.44-99.147-191.26-72.122-55.483 20.31-92.557 68.713-100.95 123.25-36.288-16.781-78.961-19.75-119.47-4.9212-81.163 29.71-122.85 119.61-93.142 200.77 29.71 81.163 119.58 122.88 200.74 93.17 18.743-6.861 35.381-16.928 49.518-29.36 15.517 9.4988 33.774 14.958 53.299 14.958 28.181 0 53.685-11.39 72.178-29.833 17.399 31.572 51.014 52.938 89.611 52.938 36.518 0 68.558-19.133 86.636-47.933 21.676 1.6789 44.061-1.1302 65.811-9.0918 15.448-5.6546 29.449-13.511 41.817-23.049 18.713 20.778 45.824 33.865 75.987 33.865 53.358 0 97.134-40.883 101.79-93.031 41.706 37.536 102.26 51.352 158.62 30.723 81.164-29.71 122.88-119.61 93.17-200.77-25.386-69.35-94.714-109.88-164.99-101.68-25.26-59.58-83.789-95.99-145.69-95.338z" color="#000000" fill="url(#linearGradient3942)" opacity=".4"/>
  <g fill="#a6a3c0">
   <path transform="matrix(.22243 .017797 -.017797 .22243 181.85 -49.751)" d="m2383.6-514.55c-2.029 0.16908-13.113-29.285-14.667-30.6-1.5542-1.3151-32.436-7.3711-32.606-9.4001-0.169-2.029 29.285-13.113 30.6-14.667 1.3152-1.5543 7.3712-32.436 9.4001-32.606 2.029-0.16908 13.113 29.285 14.667 30.6 1.5542 1.3151 32.436 7.3711 32.606 9.4001 0.169 2.029-29.285 13.113-30.6 14.667-1.3152 1.5543-7.3712 32.436-9.4001 32.606z" color="#000000"/>
   <path transform="matrix(.22243 .017797 -.017797 .22243 -92.215 40.953)" d="m2383.6-514.55c-2.029 0.16908-13.113-29.285-14.667-30.6-1.5542-1.3151-32.436-7.3711-32.606-9.4001-0.169-2.029 29.285-13.113 30.6-14.667 1.3152-1.5543 7.3712-32.436 9.4001-32.606 2.029-0.16908 13.113 29.285 14.667 30.6 1.5542 1.3151 32.436 7.3711 32.606 9.4001 0.169 2.029-29.285 13.113-30.6 14.667-1.3152 1.5543-7.3712 32.436-9.4001 32.606z" color="#000000"/>
   <path transform="matrix(.22243 .017797 -.017797 .22243 257.09 13.501)" d="m2383.6-514.55c-2.029 0.16908-13.113-29.285-14.667-30.6-1.5542-1.3151-32.436-7.3711-32.606-9.4001-0.169-2.029 29.285-13.113 30.6-14.667 1.3152-1.5543 7.3712-32.436 9.4001-32.606 2.029-0.16908 13.113 29.285 14.667 30.6 1.5542 1.3151 32.436 7.3711 32.606 9.4001 0.169 2.029-29.285 13.113-30.6 14.667-1.3152 1.5543-7.3712 32.436-9.4001 32.606z" color="#000000"/>
   <path transform="matrix(.22243 .017797 -.017797 .22243 947.41 -130.11)" d="m2383.6-514.55c-2.029 0.16908-13.113-29.285-14.667-30.6-1.5542-1.3151-32.436-7.3711-32.606-9.4001-0.169-2.029 29.285-13.113 30.6-14.667 1.3152-1.5543 7.3712-32.436 9.4001-32.606 2.029-0.16908 13.113 29.285 14.667 30.6 1.5542 1.3151 32.436 7.3711 32.606 9.4001 0.169 2.029-29.285 13.113-30.6 14.667-1.3152 1.5543-7.3712 32.436-9.4001 32.606z" color="#000000"/>
   <path transform="matrix(.22243 .017797 -.017797 .22243 -163.02 -122.64)" d="m2383.6-514.55c-2.029 0.16908-13.113-29.285-14.667-30.6-1.5542-1.3151-32.436-7.3711-32.606-9.4001-0.169-2.029 29.285-13.113 30.6-14.667 1.3152-1.5543 7.3712-32.436 9.4001-32.606 2.029-0.16908 13.113 29.285 14.667 30.6 1.5542 1.3151 32.436 7.3711 32.606 9.4001 0.169 2.029-29.285 13.113-30.6 14.667-1.3152 1.5543-7.3712 32.436-9.4001 32.606z" color="#000000"/>
   <path transform="matrix(.22243 .017797 -.017797 .22243 572.33 2.1456)" d="m2383.6-514.55c-2.029 0.16908-13.113-29.285-14.667-30.6-1.5542-1.3151-32.436-7.3711-32.606-9.4001-0.169-2.029 29.285-13.113 30.6-14.667 1.3152-1.5543 7.3712-32.436 9.4001-32.606 2.029-0.16908 13.113 29.285 14.667 30.6 1.5542 1.3151 32.436 7.3711 32.606 9.4001 0.169 2.029-29.285 13.113-30.6 14.667-1.3152 1.5543-7.3712 32.436-9.4001 32.606z" color="#000000"/>
   <path transform="matrix(.22243 .017797 -.017797 .22243 921.63 54.694)" d="m2383.6-514.55c-2.029 0.16908-13.113-29.285-14.667-30.6-1.5542-1.3151-32.436-7.3711-32.606-9.4001-0.169-2.029 29.285-13.113 30.6-14.667 1.3152-1.5543 7.3712-32.436 9.4001-32.606 2.029-0.16908 13.113 29.285 14.667 30.6 1.5542 1.3151 32.436 7.3711 32.606 9.4001 0.169 2.029-29.285 13.113-30.6 14.667-1.3152 1.5543-7.3712 32.436-9.4001 32.606z" color="#000000"/>
   <path transform="matrix(.22243 .017797 -.017797 .22243 497.76 -172.96)" d="m2383.6-514.55c-2.029 0.16908-13.113-29.285-14.667-30.6-1.5542-1.3151-32.436-7.3711-32.606-9.4001-0.169-2.029 29.285-13.113 30.6-14.667 1.3152-1.5543 7.3712-32.436 9.4001-32.606 2.029-0.16908 13.113 29.285 14.667 30.6 1.5542 1.3151 32.436 7.3711 32.606 9.4001 0.169 2.029-29.285 13.113-30.6 14.667-1.3152 1.5543-7.3712 32.436-9.4001 32.606z" color="#000000"/>
   <path transform="matrix(.22243 .017797 -.017797 .22243 -466.16 30.37)" d="m2383.6-514.55c-2.029 0.16908-13.113-29.285-14.667-30.6-1.5542-1.3151-32.436-7.3711-32.606-9.4001-0.169-2.029 29.285-13.113 30.6-14.667 1.3152-1.5543 7.3712-32.436 9.4001-32.606 2.029-0.16908 13.113 29.285 14.667 30.6 1.5542 1.3151 32.436 7.3711 32.606 9.4001 0.169 2.029-29.285 13.113-30.6 14.667-1.3152 1.5543-7.3712 32.436-9.4001 32.606z" color="#000000"/>
   <path transform="matrix(.22243 .017797 -.017797 .22243 -207.15 168.53)" d="m2383.6-514.55c-2.029 0.16908-13.113-29.285-14.667-30.6-1.5542-1.3151-32.436-7.3711-32.606-9.4001-0.169-2.029 29.285-13.113 30.6-14.667 1.3152-1.5543 7.3712-32.436 9.4001-32.606 2.029-0.16908 13.113 29.285 14.667 30.6 1.5542 1.3151 32.436 7.3711 32.606 9.4001 0.169 2.029-29.285 13.113-30.6 14.667-1.3152 1.5543-7.3712 32.436-9.4001 32.606z" color="#000000"/>
   <path transform="matrix(.22243 .017797 -.017797 .22243 -261.27 -96.574)" d="m2383.6-514.55c-2.029 0.16908-13.113-29.285-14.667-30.6-1.5542-1.3151-32.436-7.3711-32.606-9.4001-0.169-2.029 29.285-13.113 30.6-14.667 1.3152-1.5543 7.3712-32.436 9.4001-32.606 2.029-0.16908 13.113 29.285 14.667 30.6 1.5542 1.3151 32.436 7.3711 32.606 9.4001 0.169 2.029-29.285 13.113-30.6 14.667-1.3152 1.5543-7.3712 32.436-9.4001 32.606z" color="#000000"/>
   <path transform="matrix(.22243 .017797 -.017797 .22243 1187.2 -42.383)" d="m2383.6-514.55c-2.029 0.16908-13.113-29.285-14.667-30.6-1.5542-1.3151-32.436-7.3711-32.606-9.4001-0.169-2.029 29.285-13.113 30.6-14.667 1.3152-1.5543 7.3712-32.436 9.4001-32.606 2.029-0.16908 13.113 29.285 14.667 30.6 1.5542 1.3151 32.436 7.3711 32.606 9.4001 0.169 2.029-29.285 13.113-30.6 14.667-1.3152 1.5543-7.3712 32.436-9.4001 32.606z" color="#000000"/>
   <path transform="matrix(.22243 .017797 -.017797 .22243 1288.8 -12.812)" d="m2383.6-514.55c-2.029 0.16908-13.113-29.285-14.667-30.6-1.5542-1.3151-32.436-7.3711-32.606-9.4001-0.169-2.029 29.285-13.113 30.6-14.667 1.3152-1.5543 7.3712-32.436 9.4001-32.606 2.029-0.16908 13.113 29.285 14.667 30.6 1.5542 1.3151 32.436 7.3711 32.606 9.4001 0.169 2.029-29.285 13.113-30.6 14.667-1.3152 1.5543-7.3712 32.436-9.4001 32.606z" color="#000000"/>
   <path transform="matrix(.22243 .017797 -.017797 .22243 796 -32.937)" d="m2383.6-514.55c-2.029 0.16908-13.113-29.285-14.667-30.6-1.5542-1.3151-32.436-7.3711-32.606-9.4001-0.169-2.029 29.285-13.113 30.6-14.667 1.3152-1.5543 7.3712-32.436 9.4001-32.606 2.029-0.16908 13.113 29.285 14.667 30.6 1.5542 1.3151 32.436 7.3711 32.606 9.4001 0.169 2.029-29.285 13.113-30.6 14.667-1.3152 1.5543-7.3712 32.436-9.4001 32.606z" color="#000000"/>
  </g>
  <path d="m1919.9 620.25c-319.61 99.487-684.25 158.84-1070.1 158.84l-0.0621-0.0684c-300.29 5e-5 -586.93-34.022-849.75-95.857v255.2h1919.9z" color="#000000" fill="#474374"/>
  <circle cx="1085" cy="120.47" r="135" fill="url(#radialGradient28)" stroke-width=".95515"/>
  <path d="m-156.82 432.07v293.79c263.66 63.59 551.73 98.603 853.67 98.603l0.0677 0.0752c389.15 0 756.58-61.478 1077.5-164.24l361.36 19.796-361.36-71.893c-217.93 49.477-454.13 77.603-700.34 77.603l-0.068-0.0753c-465.06 0-892.27-94.804-1230.8-253.66z" fill="#636590"/>
 </g>
</svg>
